# Blender v2.82 (sub 7) OBJ File: 'grid.blend'
# www.blender.org
mtllib cylinder.mtl
o Mball
v 0.600000 3.600000 -0.981239
v 0.981239 3.600000 -0.600000
v 0.981239 4.000000 -0.600000
v 0.600000 4.000000 -0.981239
v 0.895717 4.400000 -0.600000
v 0.600000 4.400000 -0.895717
v 0.600000 4.775881 -0.600000
v 1.000000 4.400000 -0.402605
v 1.000000 4.530197 -0.200000
v 0.801422 4.800000 -0.200000
v 0.600000 4.800000 -0.566616
v 0.600000 4.960789 -0.200000
v 0.600000 4.960789 0.200000
v 0.801422 4.800000 0.200000
v 0.600000 4.800000 0.566616
v 0.600000 4.775881 0.600000
v 1.000000 4.530197 0.200000
v 1.000000 4.400000 0.402605
v 0.895717 4.400000 0.600000
v 1.000000 4.000000 0.566616
v 0.981239 4.000000 0.600000
v 0.600000 4.000000 0.981239
v 0.600000 4.400000 0.895717
v 0.600000 3.600000 0.981239
v 0.981239 3.600000 0.600000
v 0.600000 3.200000 0.981239
v 0.981239 3.200000 0.600000
v 0.600000 2.800000 0.981239
v 0.981239 2.800000 0.600000
v 0.600000 2.400000 0.981239
v 0.981239 2.400000 0.600000
v 0.600000 2.000000 0.981239
v 0.981239 2.000000 0.600000
v 0.600000 1.600000 0.895717
v 0.895717 1.600000 0.600000
v 0.600000 1.224119 0.600000
v 1.000000 1.600000 0.402604
v 1.000000 1.469804 0.200000
v 0.801422 1.200000 0.200000
v 0.600000 1.200000 0.566616
v 0.600000 1.039211 0.200000
v 0.801422 1.200000 -0.200000
v 0.600000 1.039211 -0.200000
v 0.600000 1.200000 -0.566616
v 0.600000 1.224119 -0.600000
v 1.000000 1.469804 -0.200000
v 1.000000 1.600000 -0.402604
v 0.895717 1.600000 -0.600000
v 1.000000 2.000000 -0.566616
v 0.981239 2.000000 -0.600000
v 1.000000 2.400000 -0.566616
v 0.981239 2.400000 -0.600000
v 1.000000 2.800000 -0.566616
v 0.981239 2.800000 -0.600000
v 1.000000 3.200000 -0.566616
v 0.981239 3.200000 -0.600000
v 1.000000 3.600000 -0.566616
v 0.600000 2.800000 -0.981239
v 0.600000 3.200000 -0.981239
v 0.566616 3.200000 -1.000000
v 0.566616 2.800000 -1.000000
v 0.566616 3.600000 -1.000000
v 0.600000 2.400000 -0.981239
v 0.566616 2.400000 -1.000000
v 0.600000 2.000000 -0.981239
v 0.566616 2.000000 -1.000000
v 0.600000 1.600000 -0.895717
v 0.402605 1.600000 -1.000000
v 0.200000 1.469804 -1.000000
v 0.200000 1.200000 -0.801422
v 0.566616 1.200000 -0.600000
v 0.200000 1.039211 -0.600000
v -0.200000 1.039211 -0.600000
v -0.200000 1.200000 -0.801422
v -0.200000 0.884890 -0.200000
v 0.200000 0.884891 -0.200000
v -0.200000 0.884890 0.200000
v 0.200000 0.884891 0.200000
v -0.200000 1.039211 0.600000
v 0.200000 1.039211 0.600000
v -0.200000 1.200000 0.801422
v 0.200000 1.200000 0.801422
v -0.200000 1.469804 1.000000
v 0.200000 1.469804 1.000000
v -0.200000 1.600000 1.060113
v 0.200000 1.600000 1.060113
v -0.200000 2.000000 1.133311
v 0.200000 2.000000 1.133311
v -0.200000 2.400000 1.133311
v 0.200000 2.400000 1.133311
v -0.200000 2.800000 1.133311
v 0.200000 2.800000 1.133311
v -0.200000 3.200000 1.133311
v 0.200000 3.200000 1.133311
v -0.200000 3.600000 1.133311
v 0.200000 3.600000 1.133311
v -0.200000 4.000000 1.133311
v 0.200000 4.000000 1.133311
v -0.200000 4.400000 1.060113
v 0.200000 4.400000 1.060113
v -0.200000 4.530196 1.000000
v 0.200000 4.530196 1.000000
v -0.200000 4.800000 0.801422
v 0.200000 4.800000 0.801422
v -0.200000 4.960789 0.600000
v 0.200000 4.960789 0.600000
v -0.200000 5.115109 0.200000
v 0.200000 5.115109 0.200000
v -0.200000 5.115109 -0.200000
v 0.200000 5.115109 -0.200000
v -0.200000 4.960789 -0.600000
v 0.200000 4.960789 -0.600000
v -0.200000 4.800000 -0.801422
v 0.200000 4.800000 -0.801422
v -0.200000 4.530196 -1.000000
v 0.200000 4.530196 -1.000000
v -0.200000 4.400000 -1.060113
v 0.200000 4.400000 -1.060113
v -0.200000 4.000000 -1.133311
v 0.200000 4.000000 -1.133311
v -0.200000 3.600000 -1.133311
v 0.200000 3.600000 -1.133311
v -0.200000 3.200000 -1.133311
v 0.200000 3.200000 -1.133311
v -0.200000 2.800000 -1.133311
v 0.200000 2.800000 -1.133311
v -0.200000 2.400000 -1.133311
v 0.200000 2.400000 -1.133311
v -0.200000 2.000000 -1.133311
v 0.200000 2.000000 -1.133311
v -0.200000 1.600000 -1.060113
v 0.200000 1.600000 -1.060113
v -0.200000 1.469804 -1.000000
v -0.402605 1.600000 -1.000000
v -0.600000 1.224119 -0.600000
v -0.566616 1.200000 -0.600000
v -0.600000 1.600000 -0.895717
v -0.566616 2.000000 -1.000000
v -0.600000 2.000000 -0.981239
v -0.566616 2.400000 -1.000000
v -0.600000 2.400000 -0.981239
v -0.981239 2.400000 -0.600000
v -0.981239 2.000000 -0.600000
v -0.600000 2.800000 -0.981239
v -0.981239 2.800000 -0.600000
v -0.600000 3.200000 -0.981239
v -0.981239 3.200000 -0.600000
v -0.600000 3.600000 -0.981239
v -0.981239 3.600000 -0.600000
v -0.600000 4.000000 -0.981239
v -0.981239 4.000000 -0.600000
v -0.600000 4.400000 -0.895717
v -0.895717 4.400000 -0.600000
v -0.600000 4.775881 -0.600000
v -1.000000 4.530196 -0.200000
v -1.000000 4.400000 -0.402604
v -0.600000 4.800000 -0.566616
v -0.801422 4.800000 -0.200000
v -0.600000 4.960789 -0.200000
v -0.600000 4.960789 0.200000
v -0.801422 4.800000 0.200000
v -0.600000 4.800000 0.566616
v -1.000000 4.530196 0.200000
v -0.600000 4.775881 0.600000
v -0.895717 4.400000 0.600000
v -1.000000 4.400000 0.402604
v -1.000000 4.000000 0.566616
v -0.981239 4.000000 0.600000
v -1.000000 3.600000 0.566616
v -0.981239 3.600000 0.600000
v -1.000000 3.200000 0.566616
v -0.981239 3.200000 0.600000
v -1.000000 2.800000 0.566616
v -0.981239 2.800000 0.600000
v -1.000000 2.400000 0.566616
v -0.981239 2.400000 0.600000
v -1.000000 2.000000 0.566616
v -0.981239 2.000000 0.600000
v -1.000000 1.600000 0.402605
v -0.895717 1.600000 0.600000
v -1.000000 1.469803 0.200000
v -0.600000 1.224119 0.600000
v -0.600000 1.200000 0.566616
v -0.801422 1.200000 0.200000
v -0.600000 1.039211 0.200000
v -0.600000 1.039211 -0.200000
v -0.801422 1.200000 -0.200000
v -0.600000 1.200000 -0.566616
v -1.000000 1.469803 -0.200000
v -0.895717 1.600000 -0.600000
v -1.000000 1.600000 -0.402605
v -1.000000 2.000000 -0.566616
v -1.060114 1.600000 -0.200000
v -1.060114 1.600000 0.200000
v -1.133311 2.000000 -0.200000
v -1.133311 2.000000 0.200000
v -1.133311 2.400000 -0.200000
v -1.133311 2.400000 0.200000
v -1.133311 2.800000 -0.200000
v -1.133311 2.800000 0.200000
v -1.133311 3.200000 -0.200000
v -1.133311 3.200000 0.200000
v -1.133311 3.600000 -0.200000
v -1.133311 3.600000 0.200000
v -1.133311 4.000000 -0.200000
v -1.133311 4.000000 0.200000
v -1.060113 4.400000 -0.200000
v -1.060113 4.400000 0.200000
v -1.000000 4.000000 -0.566616
v -1.000000 3.600000 -0.566616
v -1.000000 2.800000 -0.566616
v -1.000000 3.200000 -0.566616
v -1.000000 2.400000 -0.566616
v -0.600000 1.600000 0.895717
v -0.566616 1.200000 0.600000
v -0.600000 2.000000 0.981239
v -0.566616 2.000000 1.000000
v -0.402605 1.600000 1.000000
v -0.600000 2.400000 0.981239
v -0.566616 2.400000 1.000000
v -0.600000 2.800000 0.981239
v -0.566616 2.800000 1.000000
v -0.600000 3.200000 0.981239
v -0.566616 3.200000 1.000000
v -0.600000 3.600000 0.981239
v -0.566616 3.600000 1.000000
v -0.600000 4.000000 0.981239
v -0.566616 4.000000 1.000000
v -0.600000 4.400000 0.895717
v -0.402605 4.400000 1.000000
v -0.566616 4.800000 0.600000
v -0.566616 4.800000 -0.600000
v -0.566616 4.000000 -1.000000
v -0.402605 4.400000 -1.000000
v -0.566616 2.800000 -1.000000
v -0.566616 3.200000 -1.000000
v -0.566616 3.600000 -1.000000
v 0.566616 4.000000 -1.000000
v 0.402605 4.400000 -1.000000
v 0.566616 4.800000 -0.600000
v 0.566616 4.800000 0.600000
v 0.402605 4.400000 1.000000
v 0.566616 4.000000 1.000000
v 0.566616 3.600000 1.000000
v 0.566616 3.200000 1.000000
v 0.566616 2.800000 1.000000
v 0.566616 2.400000 1.000000
v 0.566616 2.000000 1.000000
v 0.402605 1.600000 1.000000
v 0.566616 1.200000 0.600000
v 1.133311 2.800000 -0.200000
v 1.133311 3.200000 -0.200000
v 1.133311 2.800000 0.200000
v 1.133311 3.200000 0.200000
v 1.133311 3.600000 0.200000
v 1.133311 3.600000 -0.200000
v 1.133311 4.000000 0.200000
v 1.133311 4.000000 -0.200000
v 1.060114 4.400000 0.200000
v 1.060114 4.400000 -0.200000
v 1.000000 4.000000 -0.566616
v 1.000000 3.600000 0.566616
v 1.000000 3.200000 0.566616
v 1.133311 2.400000 0.200000
v 1.133311 2.400000 -0.200000
v 1.133311 2.000000 0.200000
v 1.133311 2.000000 -0.200000
v 1.060113 1.600000 0.200000
v 1.060113 1.600000 -0.200000
v 1.000000 2.000000 0.566616
v 1.000000 2.400000 0.566616
v 1.000000 2.800000 0.566616
vn 0.5930 0.0855 -0.8006
vn 0.8006 0.0855 -0.5930
vn 0.7969 0.0000 -0.6041
vn 0.6041 0.0000 -0.7969
vn 0.5474 0.3591 -0.7559
vn 0.7559 0.3591 -0.5474
vn 0.5726 0.5868 -0.5726
vn 0.8372 0.5185 -0.1738
vn 0.8564 0.3574 -0.3726
vn 0.5630 0.7223 -0.4016
vn 0.7164 0.6718 -0.1884
vn 0.4821 0.8575 -0.1794
vn 0.7164 0.6718 0.1884
vn 0.4874 0.8560 0.1723
vn 0.5626 0.7204 0.4056
vn 0.8372 0.5185 0.1738
vn 0.5726 0.5868 0.5726
vn 0.7559 0.3591 0.5474
vn 0.8564 0.3574 0.3726
vn 0.8006 0.0855 0.5930
vn 0.9061 0.0868 0.4140
vn 0.5474 0.3591 0.7559
vn 0.5930 0.0855 0.8006
vn 0.7969 0.0000 0.6041
vn 0.6041 0.0000 0.7969
vn 0.8006 -0.0855 0.5930
vn 0.5930 -0.0855 0.8006
vn 0.7559 -0.3591 0.5474
vn 0.5474 -0.3591 0.7559
vn 0.5726 -0.5868 0.5726
vn 0.8372 -0.5185 0.1738
vn 0.8564 -0.3574 0.3726
vn 0.5660 -0.7156 0.4092
vn 0.7164 -0.6718 0.1884
vn 0.4876 -0.8559 0.1725
vn 0.4829 -0.8573 -0.1783
vn 0.7164 -0.6718 -0.1884
vn 0.5544 -0.7233 -0.4116
vn 0.8372 -0.5185 -0.1738
vn 0.5726 -0.5868 -0.5726
vn 0.7559 -0.3591 -0.5474
vn 0.8564 -0.3574 -0.3726
vn 0.8006 -0.0855 -0.5930
vn 0.9061 -0.0868 -0.4140
vn 0.9088 0.0000 -0.4172
vn 0.4172 0.0000 -0.9088
vn 0.4140 -0.0868 -0.9061
vn 0.5930 -0.0855 -0.8006
vn 0.3726 -0.3574 -0.8564
vn 0.5474 -0.3591 -0.7559
vn 0.4016 -0.7223 -0.5630
vn 0.1884 -0.6718 -0.7164
vn 0.1738 -0.5185 -0.8372
vn 0.1794 -0.8575 -0.4821
vn -0.1884 -0.6718 -0.7164
vn -0.1723 -0.8560 -0.4874
vn 0.1815 -0.9665 -0.1812
vn -0.1812 -0.9666 -0.1812
vn 0.1769 -0.9682 0.1769
vn -0.1769 -0.9682 0.1769
vn 0.1725 -0.8559 0.4876
vn -0.1725 -0.8559 0.4876
vn 0.1884 -0.6718 0.7164
vn -0.1884 -0.6718 0.7164
vn 0.1738 -0.5185 0.8372
vn -0.1738 -0.5185 0.8372
vn 0.1466 -0.2910 0.9454
vn -0.1466 -0.2910 0.9454
vn 0.1664 -0.0835 0.9825
vn -0.1664 -0.0835 0.9825
vn 0.1735 0.0000 0.9848
vn -0.1735 0.0000 0.9848
vn 0.1664 0.0835 0.9825
vn -0.1664 0.0835 0.9825
vn 0.1466 0.2910 0.9454
vn -0.1466 0.2910 0.9454
vn 0.1738 0.5185 0.8372
vn -0.1738 0.5185 0.8372
vn 0.1884 0.6718 0.7164
vn -0.1884 0.6718 0.7164
vn 0.1726 0.8558 0.4876
vn -0.1723 0.8560 0.4874
vn 0.1812 0.9666 0.1812
vn -0.1812 0.9666 0.1812
vn 0.1812 0.9665 -0.1815
vn -0.1769 0.9682 -0.1769
vn 0.1783 0.8573 -0.4829
vn -0.1725 0.8559 -0.4876
vn 0.1884 0.6718 -0.7164
vn -0.1884 0.6718 -0.7164
vn 0.1738 0.5185 -0.8372
vn -0.1738 0.5185 -0.8372
vn 0.1466 0.2910 -0.9454
vn -0.1466 0.2910 -0.9454
vn 0.1664 0.0835 -0.9825
vn -0.1664 0.0835 -0.9825
vn 0.1735 0.0000 -0.9848
vn -0.1735 0.0000 -0.9848
vn 0.1664 -0.0835 -0.9825
vn -0.1664 -0.0835 -0.9825
vn 0.1466 -0.2910 -0.9454
vn -0.1466 -0.2910 -0.9454
vn -0.1738 -0.5185 -0.8372
vn -0.3726 -0.3574 -0.8564
vn -0.4056 -0.7204 -0.5626
vn -0.5726 -0.5868 -0.5726
vn -0.5474 -0.3591 -0.7559
vn -0.5930 -0.0855 -0.8006
vn -0.4140 -0.0868 -0.9061
vn -0.6041 0.0000 -0.7969
vn -0.4172 0.0000 -0.9088
vn -0.8006 -0.0855 -0.5930
vn -0.7969 0.0000 -0.6041
vn -0.8006 0.0855 -0.5930
vn -0.5930 0.0855 -0.8006
vn -0.7559 0.3591 -0.5474
vn -0.5474 0.3591 -0.7559
vn -0.5726 0.5868 -0.5726
vn -0.8564 0.3574 -0.3726
vn -0.8372 0.5185 -0.1738
vn -0.7164 0.6718 -0.1884
vn -0.5660 0.7156 -0.4092
vn -0.4876 0.8559 -0.1725
vn -0.7164 0.6718 0.1884
vn -0.4876 0.8558 0.1726
vn -0.5660 0.7156 0.4092
vn -0.5726 0.5868 0.5726
vn -0.8372 0.5185 0.1738
vn -0.8564 0.3574 0.3726
vn -0.7559 0.3591 0.5474
vn -0.8006 0.0855 0.5930
vn -0.9061 0.0868 0.4140
vn -0.7969 0.0000 0.6041
vn -0.9088 0.0000 0.4172
vn -0.8006 -0.0855 0.5930
vn -0.9061 -0.0868 0.4140
vn -0.7559 -0.3591 0.5474
vn -0.8564 -0.3574 0.3726
vn -0.5726 -0.5868 0.5726
vn -0.8372 -0.5185 0.1738
vn -0.7164 -0.6718 0.1884
vn -0.5660 -0.7156 0.4092
vn -0.4876 -0.8559 0.1725
vn -0.7164 -0.6718 -0.1884
vn -0.4876 -0.8558 -0.1726
vn -0.5660 -0.7156 -0.4092
vn -0.8372 -0.5185 -0.1738
vn -0.8564 -0.3574 -0.3726
vn -0.7559 -0.3591 -0.5474
vn -0.9061 -0.0868 -0.4140
vn -0.9454 -0.2910 -0.1466
vn -0.9454 -0.2910 0.1466
vn -0.9825 -0.0835 0.1664
vn -0.9825 -0.0835 -0.1664
vn -0.9848 0.0000 0.1735
vn -0.9848 0.0000 -0.1735
vn -0.9825 0.0835 0.1664
vn -0.9825 0.0835 -0.1664
vn -0.9454 0.2910 0.1466
vn -0.9454 0.2910 -0.1466
vn -0.9061 0.0868 -0.4140
vn -0.9088 0.0000 -0.4172
vn -0.5474 -0.3591 0.7559
vn -0.4092 -0.7156 0.5660
vn -0.5930 -0.0855 0.8006
vn -0.3726 -0.3574 0.8564
vn -0.4140 -0.0868 0.9061
vn -0.4172 0.0000 0.9088
vn -0.6041 0.0000 0.7969
vn -0.4140 0.0868 0.9061
vn -0.5930 0.0855 0.8006
vn -0.3726 0.3574 0.8564
vn -0.5474 0.3591 0.7559
vn -0.4056 0.7204 0.5626
vn -0.4092 0.7156 -0.5660
vn -0.3726 0.3574 -0.8564
vn -0.4140 0.0868 -0.9061
vn 0.4140 0.0868 -0.9061
vn 0.3726 0.3574 -0.8564
vn 0.4116 0.7233 -0.5544
vn 0.4092 0.7156 0.5660
vn 0.3726 0.3574 0.8564
vn 0.4140 0.0868 0.9061
vn 0.4172 0.0000 0.9088
vn 0.4140 -0.0868 0.9061
vn 0.3726 -0.3574 0.8564
vn 0.4092 -0.7156 0.5660
vn 0.9848 0.0000 -0.1735
vn 0.9848 0.0000 0.1735
vn 0.9825 0.0835 -0.1664
vn 0.9825 0.0835 0.1664
vn 0.9454 0.2910 -0.1466
vn 0.9454 0.2910 0.1466
vn 0.9061 0.0868 -0.4140
vn 0.9088 0.0000 0.4172
vn 0.9825 -0.0835 -0.1664
vn 0.9825 -0.0835 0.1664
vn 0.9454 -0.2910 -0.1466
vn 0.9454 -0.2910 0.1466
vn 0.9061 -0.0868 0.4140
usemtl None
s 1
f 4//1 3//2 2//3 1//4
f 6//5 5//6 3//2 4//1
f 5//6 6//5 7//7
f 9//8 8//9 5//6 7//7
f 11//10 10//11 9//8 7//7
f 10//11 11//10 12//12
f 14//13 10//11 12//12 13//14
f 15//15 14//13 13//14
f 17//16 14//13 15//15 16//17
f 19//18 18//19 17//16 16//17
f 18//19 19//18 21//20 20//21
f 21//20 19//18 23//22 22//23
f 25//24 21//20 22//23 24//25
f 27//24 25//24 24//25 26//25
f 29//24 27//24 26//25 28//25
f 31//24 29//24 28//25 30//25
f 33//26 31//24 30//25 32//27
f 35//28 33//26 32//27 34//29
f 35//28 34//29 36//30
f 38//31 37//32 35//28 36//30
f 40//33 39//34 38//31 36//30
f 39//34 40//33 41//35
f 43//36 42//37 39//34 41//35
f 44//38 42//37 43//36
f 46//39 42//37 44//38 45//40
f 48//41 47//42 46//39 45//40
f 48//41 50//43 49//44 47//42
f 50//43 52//3 51//45 49//44
f 52//3 54//3 53//45 51//45
f 54//3 56//3 55//45 53//45
f 56//3 2//3 57//45 55//45
f 59//4 56//3 54//3 58//4
f 61//46 60//46 59//4 58//4
f 60//46 62//46 1//4 59//4
f 64//46 61//46 58//4 63//4
f 66//47 64//46 63//4 65//48
f 68//49 66//47 65//48 67//50
f 45//40 71//51 70//52 69//53
f 68//49 67//50 45//40 69//53
f 70//52 71//51 72//54
f 74//55 70//52 72//54 73//56
f 73//56 72//54 76//57 75//58
f 75//58 76//57 78//59 77//60
f 77//60 78//59 80//61 79//62
f 80//61 82//63 81//64 79//62
f 81//64 82//63 84//65 83//66
f 84//65 86//67 85//68 83//66
f 86//67 88//69 87//70 85//68
f 88//69 90//71 89//72 87//70
f 90//71 92//71 91//72 89//72
f 92//71 94//71 93//72 91//72
f 94//71 96//71 95//72 93//72
f 96//71 98//73 97//74 95//72
f 98//73 100//75 99//76 97//74
f 99//76 100//75 102//77 101//78
f 102//77 104//79 103//80 101//78
f 103//80 104//79 106//81 105//82
f 106//81 108//83 107//84 105//82
f 108//83 110//85 109//86 107//84
f 110//85 112//87 111//88 109//86
f 112//87 114//89 113//90 111//88
f 113//90 114//89 116//91 115//92
f 116//91 118//93 117//94 115//92
f 117//94 118//93 120//95 119//96
f 119//96 120//95 122//97 121//98
f 121//98 122//97 124//97 123//98
f 123//98 124//97 126//97 125//98
f 125//98 126//97 128//97 127//98
f 127//98 128//97 130//99 129//100
f 129//100 130//99 132//101 131//102
f 131//102 132//101 69//53 133//103
f 134//104 131//102 133//103
f 133//103 74//55 136//105 135//106
f 137//107 134//104 133//103 135//106
f 139//108 138//109 134//104 137//107
f 141//110 140//111 138//109 139//108
f 143//112 142//113 141//110 139//108
f 142//113 145//113 144//110 141//110
f 145//113 147//113 146//110 144//110
f 147//113 149//113 148//110 146//110
f 149//113 151//114 150//115 148//110
f 151//114 153//116 152//117 150//115
f 152//117 153//116 154//118
f 154//118 153//116 156//119 155//120
f 158//121 157//122 154//118 155//120
f 157//122 158//121 159//123
f 159//123 158//121 161//124 160//125
f 161//124 162//126 160//125
f 164//127 162//126 161//124 163//128
f 166//129 165//130 164//127 163//128
f 168//131 165//130 166//129 167//132
f 170//133 168//131 167//132 169//134
f 172//133 170//133 169//134 171//134
f 174//133 172//133 171//134 173//134
f 176//133 174//133 173//134 175//134
f 178//135 176//133 175//134 177//136
f 180//137 178//135 177//136 179//138
f 182//139 180//137 179//138 181//140
f 184//141 183//142 182//139 181//140
f 183//142 184//141 185//143
f 184//141 187//144 186//145 185//143
f 187//144 188//146 186//145
f 135//106 188//146 187//144 189//147
f 191//148 190//149 135//106 189//147
f 192//150 143//112 190//149 191//148
f 193//151 191//148 189//147
f 194//152 193//151 189//147 181//140
f 196//153 195//154 193//151 194//152
f 198//155 197//156 195//154 196//153
f 200//155 199//156 197//156 198//155
f 202//155 201//156 199//156 200//155
f 204//155 203//156 201//156 202//155
f 206//157 205//158 203//156 204//155
f 208//159 207//160 205//158 206//157
f 155//120 207//160 208//159 163//128
f 205//158 207//160 156//119 209//161
f 203//156 205//158 209//161 210//162
f 199//156 201//156 212//162 211//162
f 197//156 199//156 211//162 213//162
f 195//154 197//156 213//162 192//150
f 189//147 187//144 184//141 181//140
f 214//163 180//137 182//139
f 183//142 215//164 182//139
f 179//138 194//152 181//140
f 216//165 178//135 180//137 214//163
f 218//166 217//167 216//165 214//163
f 217//167 220//168 219//169 216//165
f 220//168 222//168 221//169 219//169
f 222//168 224//168 223//169 221//169
f 224//168 226//168 225//169 223//169
f 226//168 228//170 227//171 225//169
f 228//170 230//172 229//173 227//171
f 177//136 196//153 194//152 179//138
f 175//134 198//155 196//153 177//136
f 221//169 174//133 176//133 219//169
f 173//134 200//155 198//155 175//134
f 223//169 172//133 174//133 221//169
f 171//134 202//155 200//155 173//134
f 169//134 204//155 202//155 171//134
f 227//171 168//131 170//133 225//169
f 167//132 206//157 204//155 169//134
f 166//129 208//159 206//157 167//132
f 165//130 229//173 164//127
f 231//174 162//126 164//127
f 208//159 166//129 163//128
f 161//124 158//121 155//120 163//128
f 157//122 232//175 154//118
f 156//119 153//116 151//114 209//161
f 152//117 234//176 233//177 150//115
f 209//161 151//114 149//113 210//162
f 210//162 149//113 147//113 212//162
f 212//162 147//113 145//113 211//162
f 146//110 236//111 235//111 144//110
f 211//162 145//113 142//113 213//162
f 213//162 142//113 143//112 192//150
f 190//149 143//112 139//108 137//107
f 136//105 188//146 135//106
f 190//149 137//107 135//106
f 134//104 138//109 129//100 131//102
f 138//109 140//111 127//98 129//100
f 140//111 235//111 125//98 127//98
f 235//111 236//111 123//98 125//98
f 236//111 237//111 121//98 123//98
f 120//95 238//178 62//46 122//97
f 237//111 233//177 119//96 121//98
f 233//177 234//176 117//94 119//96
f 239//179 118//93 116//91
f 117//94 234//176 115//92
f 115//92 234//176 152//117 154//118
f 232//175 113//90 115//92 154//118
f 240//180 114//89 112//87
f 113//90 232//175 111//88
f 111//88 232//175 157//122 159//123
f 109//86 111//88 159//123
f 107//84 109//86 159//123 160//125
f 231//174 105//82 107//84 160//125
f 162//126 231//174 160//125
f 104//79 241//181 106//81
f 231//174 103//80 105//82
f 16//17 241//181 104//79 102//77
f 242//182 23//22 16//17 102//77
f 101//78 103//80 231//174 164//127
f 229//173 230//172 101//78 164//127
f 230//172 99//76 101//78
f 243//183 242//182 100//75 98//73
f 99//76 230//172 228//170 97//74
f 244//184 243//183 98//73 96//71
f 97//74 228//170 226//168 95//72
f 95//72 226//168 224//168 93//72
f 246//184 245//184 94//71 92//71
f 93//72 224//168 222//168 91//72
f 247//184 246//184 92//71 90//71
f 91//72 222//168 220//168 89//72
f 248//185 247//184 90//71 88//69
f 89//72 220//168 217//167 87//70
f 87//70 217//167 218//166 85//68
f 249//186 86//67 84//65
f 85//68 218//166 83//66
f 83//66 218//166 214//163 182//139
f 215//164 81//64 83//66 182//139
f 250//187 82//63 80//61
f 81//64 215//164 79//62
f 79//62 215//164 183//142 185//143
f 77//60 79//62 185//143
f 186//145 75//58 77//60 185//143
f 136//105 73//56 75//58 186//145
f 188//146 136//105 186//145
f 136//105 74//55 73//56
f 132//101 68//49 69//53
f 69//53 70//52 74//55 133//103
f 130//99 66//47 68//49 132//101
f 126//97 61//46 64//46 128//97
f 124//97 60//46 61//46 126//97
f 55//45 252//188 251//188 53//45
f 251//188 252//188 254//189 253//189
f 252//188 256//188 255//189 254//189
f 256//188 258//190 257//191 255//189
f 258//190 260//192 259//193 257//191
f 259//193 260//192 9//8 17//16
f 261//194 258//190 256//188 57//45
f 255//189 257//191 20//21 262//195
f 254//189 255//189 262//195 263//195
f 265//188 251//188 253//189 264//189
f 267//196 265//188 264//189 266//197
f 269//198 267//196 266//197 268//199
f 46//39 269//198 268//199 38//31
f 268//199 266//197 270//200 37//32
f 266//197 264//189 271//195 270//200
f 264//189 253//189 272//195 271//195
f 253//189 254//189 263//195 272//195
f 53//45 251//188 265//188 51//45
f 63//4 52//3 50//43 65//48
f 65//48 50//43 48//41 67//50
f 49//44 267//196 269//198 47//42
f 67//50 48//41 45//40
f 47//42 269//198 46//39
f 44//38 71//51 45//40
f 76//57 43//36 41//35 78//59
f 41//35 40//33 250//187 80//61
f 78//59 41//35 80//61
f 39//34 42//37 46//39 38//31
f 268//199 37//32 38//31
f 250//187 40//33 36//30
f 36//30 34//29 249//186 84//65
f 82//63 250//187 36//30 84//65
f 270//200 33//26 35//28 37//32
f 32//27 248//185 249//186 34//29
f 271//195 31//24 33//26 270//200
f 30//25 247//184 248//185 32//27
f 28//25 246//184 247//184 30//25
f 263//195 27//24 29//24 272//195
f 26//25 245//184 246//184 28//25
f 24//25 244//184 245//184 26//25
f 22//23 243//183 244//184 24//25
f 23//22 242//182 243//183 22//23
f 257//191 259//193 18//19 20//21
f 23//22 19//18 16//17
f 18//19 259//193 17//16
f 15//15 241//181 16//17
f 15//15 13//14 108//83 106//81
f 241//181 15//15 106//81
f 13//14 12//12 110//85 108//83
f 9//8 10//11 14//13 17//16
f 260//192 8//9 9//8
f 240//180 11//10 7//7
f 7//7 6//5 239//179 116//91
f 114//89 240//180 7//7 116//91
f 3//2 5//6 8//9 261//194
f 238//178 239//179 6//5 4//1
f 2//3 3//2 261//194 57//45
f 62//46 238//178 4//1 1//4
f 1//4 2//3 56//3 59//4
f 58//4 54//3 52//3 63//4
f 8//9 260//192 258//190 261//194
f 57//45 256//188 252//188 55//45
f 51//45 265//188 267//196 49//44
f 20//21 21//20 25//24 262//195
f 262//195 25//24 27//24 263//195
f 272//195 29//24 31//24 271//195
f 118//93 239//179 238//178 120//95
f 122//97 62//46 60//46 124//97
f 128//97 64//46 66//47 130//99
f 11//10 240//180 112//87 110//85
f 12//12 11//10 110//85
f 71//51 44//38 43//36 76//57
f 72//54 71//51 76//57
f 100//75 242//182 102//77
f 245//184 244//184 96//71 94//71
f 249//186 248//185 88//69 86//67
f 150//115 233//177 237//111 148//110
f 148//110 237//111 236//111 146//110
f 144//110 235//111 140//111 141//110
f 156//119 207//160 155//120
f 201//156 203//156 210//162 212//162
f 193//151 195//154 192//150 191//148
f 229//173 165//130 168//131 227//171
f 225//169 170//133 172//133 223//169
f 219//169 176//133 178//135 216//165
